<svg width="450" height="709" viewBox="0 0 450 709" fill="none" xmlns="http://www.w3.org/2000/svg">
  <path d="M30.0339 421.736L30.5968 273.768L145.228 180.201L144.665 328.169L30.0339 421.736Z" fill="#FBD091"/>
  <path d="M275.86 174.563L391.083 267.399L392.588 415.361L277.364 322.525L275.86 174.563Z" fill="#FBD091"/>
  <g filter="url(#filter0_d_232_19)">
  <rect x="74" y="100" width="274" height="453" rx="30" fill="#FFFDE7"/>
  </g>
  <ellipse cx="211" cy="682.5" rx="142" ry="26.5" fill="url(#paint0_linear_232_19)"/>
  <g filter="url(#filter1_d_232_19)">
  <path d="M213 621L130.258 597.161L161.863 558.589H264.137L295.742 597.161L213 621Z" fill="#1976D2"/>
  </g>
  <g filter="url(#filter2_d_232_19)">
  <path d="M202.648 7.00127C207.48 2.95119 214.52 2.9512 219.352 7.00128L291.862 67.7876C301.165 75.5867 295.65 90.75 283.51 90.75H138.49C126.35 90.75 120.835 75.5866 130.138 67.7876L202.648 7.00127Z" fill="#A5D6A7"/>
  </g>
  <defs>
  <filter id="filter0_d_232_19" x="70" y="100" width="282" height="461" filterUnits="userSpaceOnUse" color-interpolation-filters="sRGB">
  <feFlood flood-opacity="0" result="BackgroundImageFix"/>
  <feColorMatrix in="SourceAlpha" type="matrix" values="0 0 0 0 0 0 0 0 0 0 0 0 0 0 0 0 0 0 127 0" result="hardAlpha"/>
  <feOffset dy="4"/>
  <feGaussianBlur stdDeviation="2"/>
  <feComposite in2="hardAlpha" operator="out"/>
  <feColorMatrix type="matrix" values="0 0 0 0 0 0 0 0 0 0 0 0 0 0 0 0 0 0 0.25 0"/>
  <feBlend mode="normal" in2="BackgroundImageFix" result="effect1_dropShadow_232_19"/>
  <feBlend mode="normal" in="SourceGraphic" in2="effect1_dropShadow_232_19" result="shape"/>
  </filter>
  <filter id="filter1_d_232_19" x="126.258" y="558.589" width="173.483" height="70.4111" filterUnits="userSpaceOnUse" color-interpolation-filters="sRGB">
  <feFlood flood-opacity="0" result="BackgroundImageFix"/>
  <feColorMatrix in="SourceAlpha" type="matrix" values="0 0 0 0 0 0 0 0 0 0 0 0 0 0 0 0 0 0 127 0" result="hardAlpha"/>
  <feOffset dy="4"/>
  <feGaussianBlur stdDeviation="2"/>
  <feComposite in2="hardAlpha" operator="out"/>
  <feColorMatrix type="matrix" values="0 0 0 0 0 0 0 0 0 0 0 0 0 0 0 0 0 0 0.25 0"/>
  <feBlend mode="normal" in2="BackgroundImageFix" result="effect1_dropShadow_232_19"/>
  <feBlend mode="normal" in="SourceGraphic" in2="effect1_dropShadow_232_19" result="shape"/>
  </filter>
  <filter id="filter2_d_232_19" x="121.464" y="3.96371" width="179.072" height="94.7863" filterUnits="userSpaceOnUse" color-interpolation-filters="sRGB">
  <feFlood flood-opacity="0" result="BackgroundImageFix"/>
  <feColorMatrix in="SourceAlpha" type="matrix" values="0 0 0 0 0 0 0 0 0 0 0 0 0 0 0 0 0 0 127 0" result="hardAlpha"/>
  <feOffset dy="4"/>
  <feGaussianBlur stdDeviation="2"/>
  <feComposite in2="hardAlpha" operator="out"/>
  <feColorMatrix type="matrix" values="0 0 0 0 0 0 0 0 0 0 0 0 0 0 0 0 0 0 0.25 0"/>
  <feBlend mode="normal" in2="BackgroundImageFix" result="effect1_dropShadow_232_19"/>
  <feBlend mode="normal" in="SourceGraphic" in2="effect1_dropShadow_232_19" result="shape"/>
  </filter>
  <linearGradient id="paint0_linear_232_19" x1="211" y1="656" x2="211" y2="709" gradientUnits="userSpaceOnUse">
  <stop stop-color="#D9D9D9"/>
  <stop offset="1" stop-color="#D9D9D9" stop-opacity="0"/>
  </linearGradient>
  </defs>
  </svg>
  