<svg width="1322" height="106" viewBox="0 0 1322 106" fill="none" xmlns="http://www.w3.org/2000/svg">
  <path d="M5 15L6.12257 18.4549H9.75528L6.81636 20.5902L7.93893 24.0451L5 21.9098L2.06107 24.0451L3.18364 20.5902L0.244718 18.4549H3.87743L5 15Z" fill="#FFF505"/>
  <path d="M33 57L34.1226 60.4549H37.7553L34.8164 62.5902L35.9389 66.0451L33 63.9098L30.0611 66.0451L31.1836 62.5902L28.2447 60.4549H31.8774L33 57Z" fill="#FFF505"/>
  <path d="M213 20L214.123 23.4549H217.755L214.816 25.5902L215.939 29.0451L213 26.9098L210.061 29.0451L211.184 25.5902L208.245 23.4549H211.877L213 20Z" fill="#FFF505"/>
  <path d="M292 86L293.123 89.4549H296.755L293.816 91.5902L294.939 95.0451L292 92.9098L289.061 95.0451L290.184 91.5902L287.245 89.4549H290.877L292 86Z" fill="#FFF505"/>
  <path d="M109 15L110.123 18.4549H113.755L110.816 20.5902L111.939 24.0451L109 21.9098L106.061 24.0451L107.184 20.5902L104.245 18.4549H107.877L109 15Z" fill="#FFF505"/>
  <path d="M277 40L278.123 43.4549H281.755L278.816 45.5902L279.939 49.0451L277 46.9098L274.061 49.0451L275.184 45.5902L272.245 43.4549H275.877L277 40Z" fill="#FFF505"/>
  <path d="M372 15L373.123 18.4549H376.755L373.816 20.5902L374.939 24.0451L372 21.9098L369.061 24.0451L370.184 20.5902L367.245 18.4549H370.877L372 15Z" fill="#FFF505"/>
  <path d="M457 87L458.123 90.4549H461.755L458.816 92.5902L459.939 96.0451L457 93.9098L454.061 96.0451L455.184 92.5902L452.245 90.4549H455.877L457 87Z" fill="#FFF505"/>
  <path d="M467 35L468.123 38.4549H471.755L468.816 40.5902L469.939 44.0451L467 41.9098L464.061 44.0451L465.184 40.5902L462.245 38.4549H465.877L467 35Z" fill="#FFF505"/>
  <path d="M571 10L572.123 13.4549H575.755L572.816 15.5902L573.939 19.0451L571 16.9098L568.061 19.0451L569.184 15.5902L566.245 13.4549H569.877L571 10Z" fill="#FFF505"/>
  <path d="M693 20L694.123 23.4549H697.755L694.816 25.5902L695.939 29.0451L693 26.9098L690.061 29.0451L691.184 25.5902L688.245 23.4549H691.877L693 20Z" fill="#FFF505"/>
  <path d="M772 52L773.123 55.4549H776.755L773.816 57.5902L774.939 61.0451L772 58.9098L769.061 61.0451L770.184 57.5902L767.245 55.4549H770.877L772 52Z" fill="#FFF505"/>
  <path d="M826 15L827.123 18.4549H830.755L827.816 20.5902L828.939 24.0451L826 21.9098L823.061 24.0451L824.184 20.5902L821.245 18.4549H824.877L826 15Z" fill="#FFF505"/>
  <path d="M893 45L894.123 48.4549H897.755L894.816 50.5902L895.939 54.0451L893 51.9098L890.061 54.0451L891.184 50.5902L888.245 48.4549H891.877L893 45Z" fill="#FFF505"/>
  <path d="M808 96L809.123 99.4549H812.755L809.816 101.59L810.939 105.045L808 102.91L805.061 105.045L806.184 101.59L803.245 99.4549H806.877L808 96Z" fill="#FFF505"/>
  <path d="M1005 25L1006.12 28.4549H1009.76L1006.82 30.5902L1007.94 34.0451L1005 31.9098L1002.06 34.0451L1003.18 30.5902L1000.24 28.4549H1003.88L1005 25Z" fill="#FFF505"/>
  <path d="M1147 10L1148.12 13.4549H1151.76L1148.82 15.5902L1149.94 19.0451L1147 16.9098L1144.06 19.0451L1145.18 15.5902L1142.24 13.4549H1145.88L1147 10Z" fill="#FFF505"/>
  <path d="M1107 62L1108.12 65.4549H1111.76L1108.82 67.5902L1109.94 71.0451L1107 68.9098L1104.06 71.0451L1105.18 67.5902L1102.24 65.4549H1105.88L1107 62Z" fill="#FFF505"/>
  <path d="M1199 30L1200.12 33.4549H1203.76L1200.82 35.5902L1201.94 39.0451L1199 36.9098L1196.06 39.0451L1197.18 35.5902L1194.24 33.4549H1197.88L1199 30Z" fill="#FFF505"/>
  <path d="M1259 63L1260.12 66.4549H1263.76L1260.82 68.5902L1261.94 72.0451L1259 69.9098L1256.06 72.0451L1257.18 68.5902L1254.24 66.4549H1257.88L1259 63Z" fill="#FFF505"/>
  <path d="M1317 0L1318.12 3.45492H1321.76L1318.82 5.59017L1319.94 9.04508L1317 6.90983L1314.06 9.04508L1315.18 5.59017L1312.24 3.45492H1315.88L1317 0Z" fill="#FFF505"/>
  <path d="M967 77L968.123 80.4549H971.755L968.816 82.5902L969.939 86.0451L967 83.9098L964.061 86.0451L965.184 82.5902L962.245 80.4549H965.877L967 77Z" fill="#FFF505"/>
  </svg>
  