<svg width="723" height="327" viewBox="-3 0 723 327" fill="none" xmlns="http://www.w3.org/2000/svg">
<g filter="url(#filter0_d_637_144)">
<rect x="227" y="105" width="200" height="120" rx="20" fill="#FFA000"/>
<path d="M259.136 254.362L255.386 178.585L326.636 219.721L259.136 254.362Z" fill="#FFA000"/>
</g>
<path d="M252 137L352 137.258" stroke="white" stroke-width="4" stroke-linecap="round"/>
<path d="M252 157L352 157.258" stroke="white" stroke-width="4" stroke-linecap="round"/>
<path d="M252 177L402 177.388" stroke="white" stroke-width="4" stroke-linecap="round"/>
<path d="M252 197L402 197.388" stroke="white" stroke-width="4" stroke-linecap="round"/>
<g filter="url(#filter1_d_637_144)">
<ellipse cx="421" cy="71.7391" rx="75" ry="71.7391" fill="#FF7A00"/>
<path d="M421 129.131L364.75 160.195V98.0666L421 129.131Z" fill="#FF7A00"/>
</g>
<circle cx="391" cy="72" r="10" fill="white"/>
<circle cx="421" cy="72" r="10" fill="white"/>
<circle cx="451" cy="72" r="10" fill="white"/>
<g filter="url(#filter2_d_637_144)">
<path d="M4.39062 292.937C4.39062 289.974 4.92611 287.217 5.99707 284.665C7.09082 282.09 8.67448 279.868 10.748 278C12.8444 276.109 15.3965 274.628 18.4043 273.557C21.4349 272.486 24.887 271.95 28.7607 271.95C30.4469 271.95 32.1445 272.053 33.8535 272.258C35.5625 272.463 37.2031 272.759 38.7754 273.146C40.3704 273.511 41.863 273.955 43.2529 274.479C44.6429 274.981 45.8506 275.539 46.876 276.154L42.1934 283.776C39.9831 282.751 37.8867 281.999 35.9043 281.521C33.9447 281.042 31.9508 280.803 29.9229 280.803C27.5986 280.803 25.5137 281.11 23.668 281.726C21.8223 282.318 20.25 283.161 18.9512 284.255C17.6751 285.326 16.6953 286.602 16.0117 288.083C15.3509 289.541 15.0205 291.136 15.0205 292.868C15.0205 294.6 15.3737 296.206 16.0801 297.688C16.8092 299.146 17.8232 300.41 19.1221 301.481C20.4437 302.53 22.0273 303.361 23.873 303.977C25.7415 304.569 27.8151 304.865 30.0938 304.865C32.6003 304.865 34.9587 304.512 37.1689 303.806C39.402 303.099 41.4756 302.154 43.3896 300.969L48.0723 308.591C46.8646 309.32 45.5544 310.004 44.1416 310.642C42.7288 311.257 41.2135 311.792 39.5957 312.248C38.0007 312.704 36.3145 313.057 34.5371 313.308C32.7826 313.581 30.9596 313.718 29.0684 313.718C25.2174 313.718 21.7653 313.194 18.7119 312.146C15.6585 311.097 13.0723 309.65 10.9531 307.805C8.83398 305.936 7.20475 303.737 6.06543 301.208C4.94889 298.679 4.39062 295.922 4.39062 292.937ZM56.5488 292.834C56.5488 289.94 57.1299 287.229 58.292 284.699C59.4769 282.17 61.1517 279.96 63.3164 278.068C65.5039 276.177 68.1357 274.685 71.2119 273.591C74.3109 272.497 77.7858 271.95 81.6367 271.95C85.4876 271.95 88.9512 272.497 92.0273 273.591C95.1263 274.685 97.7581 276.177 99.9229 278.068C102.11 279.96 103.785 282.17 104.947 284.699C106.132 287.229 106.725 289.94 106.725 292.834C106.725 295.728 106.132 298.439 104.947 300.969C103.785 303.498 102.11 305.708 99.9229 307.6C97.7581 309.491 95.1263 310.983 92.0273 312.077C88.9512 313.171 85.4876 313.718 81.6367 313.718C77.7858 313.718 74.3109 313.171 71.2119 312.077C68.1357 310.983 65.5039 309.491 63.3164 307.6C61.1517 305.708 59.4769 303.498 58.292 300.969C57.1299 298.439 56.5488 295.728 56.5488 292.834ZM67.1787 292.834C67.1787 294.452 67.4977 295.99 68.1357 297.448C68.7965 298.884 69.7422 300.16 70.9727 301.276C72.2259 302.37 73.7412 303.247 75.5186 303.908C77.3187 304.546 79.3581 304.865 81.6367 304.865C83.9154 304.865 85.9434 304.546 87.7207 303.908C89.5208 303.247 91.0361 302.37 92.2666 301.276C93.5199 300.16 94.4655 298.884 95.1035 297.448C95.7643 295.99 96.0947 294.452 96.0947 292.834C96.0947 291.216 95.7643 289.678 95.1035 288.22C94.4655 286.761 93.5199 285.485 92.2666 284.392C91.0361 283.275 89.5208 282.398 87.7207 281.76C85.9434 281.099 83.9154 280.769 81.6367 280.769C79.3581 280.769 77.3187 281.099 75.5186 281.76C73.7412 282.398 72.2259 283.275 70.9727 284.392C69.7422 285.485 68.7965 286.761 68.1357 288.22C67.4977 289.678 67.1787 291.216 67.1787 292.834ZM117.218 272.668H127.335V276.086C129.864 274.536 132.325 273.465 134.718 272.873C137.133 272.258 139.492 271.95 141.793 271.95C145.006 271.95 147.957 272.463 150.646 273.488C153.334 274.514 155.636 276.063 157.55 278.137C159.031 276.997 160.489 276.04 161.925 275.266C163.36 274.468 164.796 273.83 166.231 273.352C167.667 272.85 169.125 272.497 170.606 272.292C172.088 272.064 173.614 271.95 175.187 271.95C178.491 271.95 181.487 272.406 184.176 273.317C186.865 274.206 189.155 275.539 191.046 277.316C192.96 279.094 194.43 281.315 195.455 283.981C196.503 286.625 197.027 289.689 197.027 293.176V313H186.944V294.816C186.944 292.606 186.625 290.635 185.987 288.903C185.372 287.149 184.495 285.679 183.355 284.494C182.239 283.286 180.895 282.375 179.322 281.76C177.773 281.122 176.064 280.803 174.195 280.803C173.17 280.803 172.122 280.905 171.051 281.11C169.98 281.293 168.932 281.589 167.906 281.999C166.904 282.409 165.958 282.933 165.069 283.571C164.181 284.187 163.406 284.916 162.745 285.759V313H152.662V294.816C152.662 292.606 152.343 290.635 151.705 288.903C151.09 287.149 150.213 285.679 149.073 284.494C147.957 283.286 146.601 282.375 145.006 281.76C143.434 281.122 141.702 280.803 139.811 280.803C138.648 280.803 137.475 280.928 136.29 281.179C135.128 281.407 134 281.737 132.906 282.17C131.835 282.603 130.821 283.127 129.864 283.742C128.93 284.357 128.087 285.052 127.335 285.827V313H117.218V272.668ZM210.05 272.668H220.167V276.086C222.696 274.536 225.157 273.465 227.55 272.873C229.965 272.258 232.324 271.95 234.625 271.95C237.838 271.95 240.789 272.463 243.478 273.488C246.166 274.514 248.468 276.063 250.382 278.137C251.863 276.997 253.321 276.04 254.757 275.266C256.192 274.468 257.628 273.83 259.063 273.352C260.499 272.85 261.957 272.497 263.438 272.292C264.92 272.064 266.446 271.95 268.019 271.95C271.323 271.95 274.319 272.406 277.008 273.317C279.697 274.206 281.987 275.539 283.878 277.316C285.792 279.094 287.262 281.315 288.287 283.981C289.335 286.625 289.859 289.689 289.859 293.176V313H279.776V294.816C279.776 292.606 279.457 290.635 278.819 288.903C278.204 287.149 277.327 285.679 276.188 284.494C275.071 283.286 273.727 282.375 272.154 281.76C270.605 281.122 268.896 280.803 267.027 280.803C266.002 280.803 264.954 280.905 263.883 281.11C262.812 281.293 261.764 281.589 260.738 281.999C259.736 282.409 258.79 282.933 257.901 283.571C257.013 284.187 256.238 284.916 255.577 285.759V313H245.494V294.816C245.494 292.606 245.175 290.635 244.537 288.903C243.922 287.149 243.045 285.679 241.905 284.494C240.789 283.286 239.433 282.375 237.838 281.76C236.266 281.122 234.534 280.803 232.643 280.803C231.48 280.803 230.307 280.928 229.122 281.179C227.96 281.407 226.832 281.737 225.738 282.17C224.667 282.603 223.653 283.127 222.696 283.742C221.762 284.357 220.919 285.052 220.167 285.827V313H210.05V272.668ZM302.608 272.634H312.691V292.321C312.691 294.19 312.896 295.899 313.307 297.448C313.717 298.975 314.412 300.285 315.392 301.379C316.394 302.473 317.716 303.327 319.356 303.942C321.02 304.535 323.082 304.831 325.543 304.831C326.705 304.831 327.879 304.706 329.063 304.455C330.271 304.204 331.422 303.863 332.516 303.43C333.609 302.974 334.623 302.438 335.558 301.823C336.515 301.208 337.335 300.536 338.019 299.807V272.634H348.136V313H338.019V309.548C335.535 311.029 333.04 312.089 330.533 312.727C328.027 313.365 325.646 313.684 323.39 313.684C319.698 313.684 316.531 313.239 313.888 312.351C311.267 311.462 309.114 310.174 307.428 308.488C305.764 306.779 304.545 304.694 303.771 302.233C302.996 299.75 302.608 296.924 302.608 293.757V272.634ZM360.987 272.668H371.104V276.086C373.793 274.559 376.357 273.488 378.795 272.873C381.256 272.258 383.66 271.95 386.007 271.95C389.083 271.95 391.931 272.406 394.552 273.317C397.172 274.206 399.439 275.539 401.354 277.316C403.268 279.094 404.76 281.315 405.831 283.981C406.925 286.625 407.472 289.689 407.472 293.176V313H397.389V294.816C397.389 292.606 397.07 290.635 396.432 288.903C395.816 287.149 394.916 285.679 393.731 284.494C392.569 283.286 391.145 282.375 389.459 281.76C387.796 281.122 385.927 280.803 383.854 280.803C382.76 280.803 381.632 280.917 380.47 281.145C379.33 281.372 378.202 281.703 377.086 282.136C375.992 282.546 374.933 283.07 373.907 283.708C372.882 284.323 371.948 285.03 371.104 285.827V313H360.987V272.668ZM425.245 267.165C424.243 267.165 423.331 267.028 422.511 266.755C421.713 266.459 421.03 266.071 420.46 265.593C419.89 265.091 419.446 264.522 419.127 263.884C418.831 263.223 418.683 262.528 418.683 261.799C418.683 261.047 418.831 260.352 419.127 259.714C419.446 259.053 419.89 258.483 420.46 258.005C421.03 257.526 421.713 257.15 422.511 256.877C423.331 256.581 424.243 256.433 425.245 256.433C426.271 256.433 427.182 256.581 427.979 256.877C428.8 257.15 429.495 257.526 430.064 258.005C430.634 258.483 431.067 259.053 431.363 259.714C431.682 260.352 431.842 261.047 431.842 261.799C431.842 262.528 431.682 263.223 431.363 263.884C431.067 264.522 430.634 265.091 430.064 265.593C429.495 266.071 428.8 266.459 427.979 266.755C427.182 267.028 426.271 267.165 425.245 267.165ZM420.187 272.668H430.304V313H420.187V272.668ZM440.865 292.937C440.865 289.974 441.401 287.217 442.472 284.665C443.565 282.09 445.149 279.868 447.223 278C449.319 276.109 451.871 274.628 454.879 273.557C457.91 272.486 461.362 271.95 465.235 271.95C466.922 271.95 468.619 272.053 470.328 272.258C472.037 272.463 473.678 272.759 475.25 273.146C476.845 273.511 478.338 273.955 479.728 274.479C481.118 274.981 482.325 275.539 483.351 276.154L478.668 283.776C476.458 282.751 474.361 281.999 472.379 281.521C470.419 281.042 468.425 280.803 466.397 280.803C464.073 280.803 461.988 281.11 460.143 281.726C458.297 282.318 456.725 283.161 455.426 284.255C454.15 285.326 453.17 286.602 452.486 288.083C451.826 289.541 451.495 291.136 451.495 292.868C451.495 294.6 451.848 296.206 452.555 297.688C453.284 299.146 454.298 300.41 455.597 301.481C456.918 302.53 458.502 303.361 460.348 303.977C462.216 304.569 464.29 304.865 466.568 304.865C469.075 304.865 471.433 304.512 473.644 303.806C475.877 303.099 477.95 302.154 479.864 300.969L484.547 308.591C483.339 309.32 482.029 310.004 480.616 310.642C479.203 311.257 477.688 311.792 476.07 312.248C474.475 312.704 472.789 313.057 471.012 313.308C469.257 313.581 467.434 313.718 465.543 313.718C461.692 313.718 458.24 313.194 455.187 312.146C452.133 311.097 449.547 309.65 447.428 307.805C445.309 305.936 443.679 303.737 442.54 301.208C441.424 298.679 440.865 295.922 440.865 292.937ZM493.536 300.285C493.536 298.348 493.958 296.582 494.801 294.987C495.644 293.392 496.909 292.025 498.595 290.886C500.281 289.724 502.377 288.835 504.884 288.22C507.413 287.582 510.353 287.263 513.702 287.263C516.186 287.263 518.795 287.445 521.529 287.81C524.286 288.174 527.123 288.732 530.04 289.484C529.926 288.208 529.539 287.035 528.878 285.964C528.217 284.87 527.294 283.936 526.109 283.161C524.947 282.364 523.535 281.748 521.871 281.315C520.23 280.882 518.362 280.666 516.266 280.666C515.126 280.666 513.873 280.734 512.506 280.871C511.139 281.008 509.726 281.213 508.268 281.486C506.809 281.76 505.362 282.102 503.927 282.512C502.514 282.922 501.192 283.412 499.962 283.981L496.886 275.676C498.412 275.129 500.042 274.628 501.773 274.172C503.528 273.716 505.317 273.329 507.14 273.01C508.963 272.668 510.785 272.406 512.608 272.224C514.431 272.041 516.197 271.95 517.906 271.95C525.449 271.95 531.054 273.876 534.723 277.727C538.391 281.577 540.226 287.479 540.226 295.432V313H530.108V309.206C529.06 309.821 527.91 310.402 526.656 310.949C525.426 311.496 524.081 311.975 522.623 312.385C521.165 312.795 519.592 313.114 517.906 313.342C516.243 313.592 514.477 313.718 512.608 313.718C509.464 313.718 506.695 313.376 504.303 312.692C501.933 312.009 499.951 311.063 498.355 309.855C496.76 308.648 495.553 307.235 494.732 305.617C493.935 303.977 493.536 302.199 493.536 300.285ZM504.2 299.943C504.2 300.604 504.371 301.242 504.713 301.857C505.055 302.45 505.602 302.985 506.354 303.464C507.105 303.92 508.062 304.296 509.225 304.592C510.41 304.865 511.834 305.002 513.497 305.002C515.274 305.002 516.995 304.842 518.658 304.523C520.322 304.204 521.871 303.783 523.307 303.259C524.742 302.735 526.041 302.131 527.203 301.447C528.365 300.764 529.334 300.057 530.108 299.328V297.551C528.559 297.118 527.021 296.753 525.494 296.457C523.99 296.161 522.543 295.933 521.153 295.773C519.786 295.591 518.487 295.466 517.257 295.397C516.049 295.329 514.99 295.295 514.078 295.295C512.187 295.295 510.615 295.42 509.361 295.671C508.108 295.922 507.094 296.263 506.319 296.696C505.545 297.106 504.998 297.596 504.679 298.166C504.36 298.736 504.2 299.328 504.2 299.943ZM559.708 280.256H549.967V272.668H559.708V260.124H569.825V272.668H579.566V280.256H569.825V313H559.708V280.256ZM593.888 267.165C592.885 267.165 591.974 267.028 591.153 266.755C590.356 266.459 589.672 266.071 589.103 265.593C588.533 265.091 588.089 264.522 587.77 263.884C587.473 263.223 587.325 262.528 587.325 261.799C587.325 261.047 587.473 260.352 587.77 259.714C588.089 259.053 588.533 258.483 589.103 258.005C589.672 257.526 590.356 257.15 591.153 256.877C591.974 256.581 592.885 256.433 593.888 256.433C594.913 256.433 595.825 256.581 596.622 256.877C597.442 257.15 598.137 257.526 598.707 258.005C599.277 258.483 599.71 259.053 600.006 259.714C600.325 260.352 600.484 261.047 600.484 261.799C600.484 262.528 600.325 263.223 600.006 263.884C599.71 264.522 599.277 265.091 598.707 265.593C598.137 266.071 597.442 266.459 596.622 266.755C595.825 267.028 594.913 267.165 593.888 267.165ZM588.829 272.668H598.946V313H588.829V272.668ZM609.508 292.834C609.508 289.94 610.089 287.229 611.251 284.699C612.436 282.17 614.111 279.96 616.275 278.068C618.463 276.177 621.095 274.685 624.171 273.591C627.27 272.497 630.745 271.95 634.596 271.95C638.447 271.95 641.91 272.497 644.986 273.591C648.085 274.685 650.717 276.177 652.882 278.068C655.069 279.96 656.744 282.17 657.906 284.699C659.091 287.229 659.684 289.94 659.684 292.834C659.684 295.728 659.091 298.439 657.906 300.969C656.744 303.498 655.069 305.708 652.882 307.6C650.717 309.491 648.085 310.983 644.986 312.077C641.91 313.171 638.447 313.718 634.596 313.718C630.745 313.718 627.27 313.171 624.171 312.077C621.095 310.983 618.463 309.491 616.275 307.6C614.111 305.708 612.436 303.498 611.251 300.969C610.089 298.439 609.508 295.728 609.508 292.834ZM620.138 292.834C620.138 294.452 620.457 295.99 621.095 297.448C621.756 298.884 622.701 300.16 623.932 301.276C625.185 302.37 626.7 303.247 628.478 303.908C630.278 304.546 632.317 304.865 634.596 304.865C636.874 304.865 638.902 304.546 640.68 303.908C642.48 303.247 643.995 302.37 645.226 301.276C646.479 300.16 647.424 298.884 648.062 297.448C648.723 295.99 649.054 294.452 649.054 292.834C649.054 291.216 648.723 289.678 648.062 288.22C647.424 286.761 646.479 285.485 645.226 284.392C643.995 283.275 642.48 282.398 640.68 281.76C638.902 281.099 636.874 280.769 634.596 280.769C632.317 280.769 630.278 281.099 628.478 281.76C626.7 282.398 625.185 283.275 623.932 284.392C622.701 285.485 621.756 286.761 621.095 288.22C620.457 289.678 620.138 291.216 620.138 292.834ZM669.903 272.668H680.021V276.086C682.709 274.559 685.273 273.488 687.711 272.873C690.172 272.258 692.576 271.95 694.923 271.95C697.999 271.95 700.847 272.406 703.468 273.317C706.088 274.206 708.355 275.539 710.27 277.316C712.184 279.094 713.676 281.315 714.747 283.981C715.841 286.625 716.388 289.689 716.388 293.176V313H706.305V294.816C706.305 292.606 705.986 290.635 705.348 288.903C704.732 287.149 703.832 285.679 702.647 284.494C701.485 283.286 700.061 282.375 698.375 281.76C696.712 281.122 694.843 280.803 692.77 280.803C691.676 280.803 690.548 280.917 689.386 281.145C688.246 281.372 687.118 281.703 686.002 282.136C684.908 282.546 683.849 283.07 682.823 283.708C681.798 284.323 680.864 285.03 680.021 285.827V313H669.903V272.668Z" fill="black"/>
</g>
<defs>
<filter id="filter0_d_637_144" x="223" y="105" width="208" height="157.362" filterUnits="userSpaceOnUse" color-interpolation-filters="sRGB">
<feFlood flood-opacity="0" result="BackgroundImageFix"/>
<feColorMatrix in="SourceAlpha" type="matrix" values="0 0 0 0 0 0 0 0 0 0 0 0 0 0 0 0 0 0 127 0" result="hardAlpha"/>
<feOffset dy="4"/>
<feGaussianBlur stdDeviation="2"/>
<feComposite in2="hardAlpha" operator="out"/>
<feColorMatrix type="matrix" values="0 0 0 0 0 0 0 0 0 0 0 0 0 0 0 0 0 0 0.25 0"/>
<feBlend mode="normal" in2="BackgroundImageFix" result="effect1_dropShadow_637_144"/>
<feBlend mode="normal" in="SourceGraphic" in2="effect1_dropShadow_637_144" result="shape"/>
</filter>
<filter id="filter1_d_637_144" x="342" y="0" width="158" height="168.195" filterUnits="userSpaceOnUse" color-interpolation-filters="sRGB">
<feFlood flood-opacity="0" result="BackgroundImageFix"/>
<feColorMatrix in="SourceAlpha" type="matrix" values="0 0 0 0 0 0 0 0 0 0 0 0 0 0 0 0 0 0 127 0" result="hardAlpha"/>
<feOffset dy="4"/>
<feGaussianBlur stdDeviation="2"/>
<feComposite in2="hardAlpha" operator="out"/>
<feColorMatrix type="matrix" values="0 0 0 0 0 0 0 0 0 0 0 0 0 0 0 0 0 0 0.25 0"/>
<feBlend mode="normal" in2="BackgroundImageFix" result="effect1_dropShadow_637_144"/>
<feBlend mode="normal" in="SourceGraphic" in2="effect1_dropShadow_637_144" result="shape"/>
</filter>
<filter id="filter2_d_637_144" x="0.390625" y="256.433" width="719.997" height="65.2852" filterUnits="userSpaceOnUse" color-interpolation-filters="sRGB">
<feFlood flood-opacity="0" result="BackgroundImageFix"/>
<feColorMatrix in="SourceAlpha" type="matrix" values="0 0 0 0 0 0 0 0 0 0 0 0 0 0 0 0 0 0 127 0" result="hardAlpha"/>
<feOffset dy="4"/>
<feGaussianBlur stdDeviation="2"/>
<feComposite in2="hardAlpha" operator="out"/>
<feColorMatrix type="matrix" values="0 0 0 0 0 0 0 0 0 0 0 0 0 0 0 0 0 0 0.25 0"/>
<feBlend mode="normal" in2="BackgroundImageFix" result="effect1_dropShadow_637_144"/>
<feBlend mode="normal" in="SourceGraphic" in2="effect1_dropShadow_637_144" result="shape"/>
</filter>
</defs>
</svg>
