<svg width="761" height="261" viewBox="-100 0 761 261" fill="none" xmlns="http://www.w3.org/2000/svg">
<path d="M113.766 147.166L591.488 23.6801L599.744 219.413L113.766 147.166Z" fill="url(#paint0_linear_637_146)"/>
<g filter="url(#filter0_d_637_146)">
<path d="M272.688 140.968C272.688 139.487 272.956 138.108 273.491 136.832C274.038 135.545 274.83 134.434 275.867 133.5C276.915 132.554 278.191 131.813 279.695 131.278C281.21 130.742 282.936 130.475 284.873 130.475C285.716 130.475 286.565 130.526 287.419 130.629C288.274 130.731 289.094 130.879 289.88 131.073C290.678 131.255 291.424 131.477 292.119 131.739C292.814 131.99 293.418 132.269 293.931 132.577L291.589 136.388C290.484 135.875 289.436 135.499 288.445 135.26C287.465 135.021 286.468 134.901 285.454 134.901C284.292 134.901 283.25 135.055 282.327 135.362C281.404 135.659 280.618 136.08 279.968 136.627C279.33 137.163 278.84 137.801 278.499 138.541C278.168 139.27 278.003 140.068 278.003 140.934C278.003 141.8 278.18 142.603 278.533 143.343C278.897 144.073 279.404 144.705 280.054 145.24C280.715 145.764 281.506 146.18 282.429 146.488C283.363 146.784 284.4 146.932 285.54 146.932C286.793 146.932 287.972 146.756 289.077 146.402C290.194 146.049 291.23 145.576 292.188 144.984L294.529 148.795C293.925 149.16 293.27 149.501 292.563 149.82C291.857 150.128 291.099 150.396 290.291 150.624C289.493 150.852 288.65 151.028 287.761 151.153C286.884 151.29 285.972 151.359 285.027 151.359C283.101 151.359 281.375 151.096 279.849 150.572C278.322 150.048 277.029 149.325 275.969 148.402C274.91 147.468 274.095 146.368 273.525 145.104C272.967 143.839 272.688 142.46 272.688 140.968ZM300.432 127.933H306.194V139.183C306.194 140.251 306.311 141.227 306.545 142.113C306.78 142.985 307.177 143.734 307.737 144.359C308.31 144.984 309.065 145.472 310.002 145.824C310.953 146.162 312.131 146.332 313.538 146.332C314.202 146.332 314.872 146.26 315.549 146.117C316.239 145.974 316.897 145.778 317.522 145.531C318.147 145.27 318.726 144.964 319.26 144.613C319.807 144.261 320.276 143.877 320.667 143.461V127.933H326.448V151H320.667V149.027C319.247 149.873 317.821 150.479 316.389 150.843C314.957 151.208 313.596 151.39 312.307 151.39C310.198 151.39 308.388 151.136 306.877 150.629C305.38 150.121 304.15 149.385 303.186 148.422C302.236 147.445 301.539 146.254 301.096 144.847C300.653 143.428 300.432 141.813 300.432 140.004V127.933ZM333.948 118.597H339.729V151H333.948V118.597ZM352.045 128.547H345.366V123.343H352.045V114.742H358.983V123.343H365.663V128.547H358.983V151H352.045V128.547ZM373.814 110.633H383.897V130.321C383.897 132.189 384.102 133.898 384.512 135.448C384.922 136.975 385.617 138.285 386.597 139.379C387.6 140.472 388.921 141.327 390.562 141.942C392.225 142.534 394.288 142.831 396.749 142.831C397.911 142.831 399.084 142.705 400.269 142.455C401.477 142.204 402.627 141.862 403.721 141.429C404.815 140.974 405.829 140.438 406.763 139.823C407.72 139.208 408.541 138.535 409.224 137.806V110.633H419.341V151H409.224V147.547C406.74 149.029 404.245 150.088 401.739 150.726C399.232 151.364 396.851 151.683 394.595 151.683C390.904 151.683 387.736 151.239 385.093 150.35C382.473 149.462 380.319 148.174 378.633 146.488C376.97 144.779 375.751 142.694 374.976 140.233C374.201 137.749 373.814 134.924 373.814 131.756V110.633ZM433.096 104.906H444.659V111.547C447.211 109.645 449.906 108.005 452.745 106.625C455.583 105.244 458.409 104.19 461.221 103.461L464.62 114.047C460.167 114.489 456.247 115.492 452.862 117.054C449.502 118.591 446.768 120.765 444.659 123.578V151H433.096V104.906ZM471.695 124.896C471.695 121.38 472.413 118.026 473.848 114.833C475.284 111.61 477.349 108.768 480.044 106.307C482.74 103.846 486.036 101.883 489.932 100.419C493.858 98.9537 498.311 98.2213 503.292 98.2213C508.243 98.2213 512.696 98.9684 516.651 100.463C520.635 101.927 524.004 103.949 526.758 106.527C529.542 109.105 531.666 112.137 533.13 115.624C534.625 119.11 535.372 122.845 535.372 126.83C535.372 127.328 535.357 127.87 535.328 128.456C535.328 129.012 535.298 129.525 535.24 129.994H486.197C486.753 131.547 487.647 132.967 488.877 134.256C490.137 135.546 491.705 136.659 493.58 137.596C495.455 138.534 497.623 139.266 500.083 139.794C502.544 140.292 505.269 140.541 508.257 140.541C511.246 140.541 514.219 140.233 517.178 139.618C520.137 138.973 522.964 138.168 525.66 137.201L530.054 147.132C528.355 147.923 526.626 148.627 524.869 149.242C523.14 149.828 521.324 150.326 519.419 150.736C517.544 151.117 515.567 151.41 513.487 151.615C511.436 151.82 509.268 151.922 506.983 151.922C501.153 151.922 496.041 151.219 491.646 149.813C487.251 148.407 483.575 146.488 480.616 144.056C477.657 141.625 475.43 138.768 473.936 135.487C472.442 132.206 471.695 128.675 471.695 124.896ZM521.573 119.842C521.104 118.407 520.372 117.074 519.375 115.843C518.409 114.584 517.193 113.5 515.728 112.591C514.263 111.654 512.564 110.922 510.63 110.394C508.697 109.867 506.573 109.603 504.258 109.603C501.797 109.603 499.556 109.881 497.535 110.438C495.513 110.995 493.741 111.742 492.217 112.679C490.694 113.617 489.419 114.701 488.394 115.931C487.398 117.162 486.666 118.465 486.197 119.842H521.573Z" fill="#512DA8"/>
</g>
<g filter="url(#filter1_d_637_146)">
<path d="M152.74 150.654C148.626 148.368 148.626 142.451 152.74 140.164L209.911 108.398C213.91 106.176 218.825 109.068 218.825 113.643V177.175C218.825 181.75 213.91 184.642 209.911 182.42L152.74 150.654Z" fill="#425371"/>
<rect x="4" y="84.8398" width="167.832" height="121.139" rx="20" fill="#425371"/>
<rect width="33.4212" height="81.1347" transform="matrix(0.943777 0.330584 -0.353745 0.935342 55.3584 151.062)" fill="#425371"/>
<rect width="33.4212" height="81.1347" transform="matrix(0.943777 -0.330584 0.353745 0.935342 90.4336 162.111)" fill="#425371"/>
<ellipse cx="24.1397" cy="189.827" rx="4.1958" ry="4.03795" fill="#F65D1B"/>
<ellipse cx="40.9229" cy="189.827" rx="4.1958" ry="4.03795" fill="#FFF505"/>
<ellipse cx="57.7061" cy="189.827" rx="4.1958" ry="4.03795" fill="#00C853"/>
<g filter="url(#filter2_d_637_146)">
<ellipse cx="64.4195" cy="70.3033" rx="33.5664" ry="32.3036" fill="#D9D9D9"/>
<ellipse cx="108.895" cy="78.3792" rx="20.979" ry="20.1898" fill="#D9D9D9"/>
</g>
</g>
<g filter="url(#filter3_i_637_146)">
<ellipse cx="108.895" cy="78.3791" rx="8.39161" ry="8.07591" fill="#7C7C7C"/>
</g>
<g filter="url(#filter4_i_637_146)">
<ellipse cx="64.4194" cy="70.3033" rx="16.7832" ry="16.1518" fill="#7C7C7C"/>
</g>
<rect x="4" y="102.607" width="167.832" height="107.41" rx="20" fill="#7C7C7C"/>
<rect x="4" y="102.607" width="167.832" height="80.7591" fill="#425371"/>
<ellipse cx="26.6572" cy="196.287" rx="4.1958" ry="4.03795" fill="#F65D1B"/>
<ellipse cx="43.4404" cy="196.287" rx="4.1958" ry="4.03795" fill="#FFF505"/>
<ellipse cx="60.2236" cy="196.287" rx="4.1958" ry="4.03795" fill="#00C853"/>
<rect x="4" y="183.366" width="167.832" height="1.61518" fill="#D9D9D9"/>
<defs>
<filter id="filter0_d_637_146" x="268.688" y="98.2213" width="270.684" height="61.7012" filterUnits="userSpaceOnUse" color-interpolation-filters="sRGB">
<feFlood flood-opacity="0" result="BackgroundImageFix"/>
<feColorMatrix in="SourceAlpha" type="matrix" values="0 0 0 0 0 0 0 0 0 0 0 0 0 0 0 0 0 0 127 0" result="hardAlpha"/>
<feOffset dy="4"/>
<feGaussianBlur stdDeviation="2"/>
<feComposite in2="hardAlpha" operator="out"/>
<feColorMatrix type="matrix" values="0 0 0 0 0 0 0 0 0 0 0 0 0 0 0 0 0 0 0.25 0"/>
<feBlend mode="normal" in2="BackgroundImageFix" result="effect1_dropShadow_637_146"/>
<feBlend mode="normal" in="SourceGraphic" in2="effect1_dropShadow_637_146" result="shape"/>
</filter>
<filter id="filter1_d_637_146" x="0" y="37.9996" width="222.825" height="208" filterUnits="userSpaceOnUse" color-interpolation-filters="sRGB">
<feFlood flood-opacity="0" result="BackgroundImageFix"/>
<feColorMatrix in="SourceAlpha" type="matrix" values="0 0 0 0 0 0 0 0 0 0 0 0 0 0 0 0 0 0 127 0" result="hardAlpha"/>
<feOffset dy="4"/>
<feGaussianBlur stdDeviation="2"/>
<feComposite in2="hardAlpha" operator="out"/>
<feColorMatrix type="matrix" values="0 0 0 0 0 0 0 0 0 0 0 0 0 0 0 0 0 0 0.25 0"/>
<feBlend mode="normal" in2="BackgroundImageFix" result="effect1_dropShadow_637_146"/>
<feBlend mode="normal" in="SourceGraphic" in2="effect1_dropShadow_637_146" result="shape"/>
</filter>
<filter id="filter2_d_637_146" x="26.853" y="37.9996" width="107.021" height="72.6073" filterUnits="userSpaceOnUse" color-interpolation-filters="sRGB">
<feFlood flood-opacity="0" result="BackgroundImageFix"/>
<feColorMatrix in="SourceAlpha" type="matrix" values="0 0 0 0 0 0 0 0 0 0 0 0 0 0 0 0 0 0 127 0" result="hardAlpha"/>
<feOffset dy="4"/>
<feGaussianBlur stdDeviation="2"/>
<feComposite in2="hardAlpha" operator="out"/>
<feColorMatrix type="matrix" values="0 0 0 0 0 0 0 0 0 0 0 0 0 0 0 0 0 0 0.25 0"/>
<feBlend mode="normal" in2="BackgroundImageFix" result="effect1_dropShadow_637_146"/>
<feBlend mode="normal" in="SourceGraphic" in2="effect1_dropShadow_637_146" result="shape"/>
</filter>
<filter id="filter3_i_637_146" x="100.503" y="70.3032" width="16.7832" height="20.1519" filterUnits="userSpaceOnUse" color-interpolation-filters="sRGB">
<feFlood flood-opacity="0" result="BackgroundImageFix"/>
<feBlend mode="normal" in="SourceGraphic" in2="BackgroundImageFix" result="shape"/>
<feColorMatrix in="SourceAlpha" type="matrix" values="0 0 0 0 0 0 0 0 0 0 0 0 0 0 0 0 0 0 127 0" result="hardAlpha"/>
<feOffset dy="4"/>
<feGaussianBlur stdDeviation="2"/>
<feComposite in2="hardAlpha" operator="arithmetic" k2="-1" k3="1"/>
<feColorMatrix type="matrix" values="0 0 0 0 0 0 0 0 0 0 0 0 0 0 0 0 0 0 0.25 0"/>
<feBlend mode="normal" in2="shape" result="effect1_innerShadow_637_146"/>
</filter>
<filter id="filter4_i_637_146" x="47.6362" y="54.1515" width="33.5664" height="36.3036" filterUnits="userSpaceOnUse" color-interpolation-filters="sRGB">
<feFlood flood-opacity="0" result="BackgroundImageFix"/>
<feBlend mode="normal" in="SourceGraphic" in2="BackgroundImageFix" result="shape"/>
<feColorMatrix in="SourceAlpha" type="matrix" values="0 0 0 0 0 0 0 0 0 0 0 0 0 0 0 0 0 0 127 0" result="hardAlpha"/>
<feOffset dy="4"/>
<feGaussianBlur stdDeviation="2"/>
<feComposite in2="hardAlpha" operator="arithmetic" k2="-1" k3="1"/>
<feColorMatrix type="matrix" values="0 0 0 0 0 0 0 0 0 0 0 0 0 0 0 0 0 0 0.25 0"/>
<feBlend mode="normal" in2="shape" result="effect1_innerShadow_637_146"/>
</filter>
<linearGradient id="paint0_linear_637_146" x1="113.766" y1="147.166" x2="756.53" y2="120.054" gradientUnits="userSpaceOnUse">
<stop stop-color="#FFF505"/>
<stop offset="1" stop-color="#D9D9D9" stop-opacity="0"/>
</linearGradient>
</defs>
</svg>
