<svg width="505" height="240" viewBox="0 0 505 240" fill="none" xmlns="http://www.w3.org/2000/svg">
<g filter="url(#filter0_d_637_81)">
<circle cx="99" cy="95" r="82.5" fill="#FFEBEE" stroke="#EC407A" stroke-width="25"/>
<g filter="url(#filter1_d_637_81)">
<g filter="url(#filter2_d_637_81)">
<ellipse cx="96.5" cy="57.2727" rx="12.5" ry="12.2727" fill="#EC407A"/>
</g>
<g filter="url(#filter3_d_637_81)">
<rect x="87.125" y="77.675" width="18.75" height="57.325" rx="9.375" fill="#EC407A"/>
</g>
</g>
<rect width="31.8182" height="100" rx="15.9091" transform="matrix(0.777275 -0.629161 0.656298 0.754502 135 162.021)" fill="#EC407A"/>
</g>
<g filter="url(#filter4_d_637_81)">
<path d="M139.344 85.3438H146.281V87.6875C148.125 86.6406 149.883 85.9062 151.555 85.4844C153.242 85.0625 154.891 84.8516 156.5 84.8516C158.609 84.8516 160.562 85.1641 162.359 85.7891C164.156 86.3984 165.711 87.3125 167.023 88.5312C168.336 89.75 169.359 91.2734 170.094 93.1016C170.844 94.9141 171.219 97.0156 171.219 99.4062V113H164.305V100.531C164.305 99.0156 164.086 97.6641 163.648 96.4766C163.227 95.2734 162.609 94.2656 161.797 93.4531C161 92.625 160.023 92 158.867 91.5781C157.727 91.1406 156.445 90.9219 155.023 90.9219C154.273 90.9219 153.5 91 152.703 91.1562C151.922 91.3125 151.148 91.5391 150.383 91.8359C149.633 92.1172 148.906 92.4766 148.203 92.9141C147.5 93.3359 146.859 93.8203 146.281 94.3672V113H139.344V85.3438ZM182.773 90.5469H178.039V85.3438H182.773C182.773 83.4688 183.039 81.8047 183.57 80.3516C184.102 78.8828 184.867 77.6484 185.867 76.6484C186.883 75.6328 188.109 74.8594 189.547 74.3281C191 73.7969 192.633 73.5312 194.445 73.5312C195.711 73.5312 196.953 73.6562 198.172 73.9062C199.391 74.1406 200.469 74.4844 201.406 74.9375L198.945 80.7734C198.57 80.5547 198.039 80.3516 197.352 80.1641C196.68 79.9766 195.938 79.8828 195.125 79.8828C193.531 79.8828 192.242 80.3359 191.258 81.2422C190.289 82.1328 189.773 83.5 189.711 85.3438H198.453V90.5469H189.711V113H182.773V90.5469ZM202.133 99.1719C202.133 97.1875 202.531 95.3281 203.328 93.5938C204.141 91.8594 205.289 90.3438 206.773 89.0469C208.273 87.75 210.078 86.7266 212.188 85.9766C214.312 85.2266 216.695 84.8516 219.336 84.8516C221.977 84.8516 224.352 85.2266 226.461 85.9766C228.586 86.7266 230.391 87.75 231.875 89.0469C233.375 90.3438 234.523 91.8594 235.32 93.5938C236.133 95.3281 236.539 97.1875 236.539 99.1719C236.539 101.156 236.133 103.016 235.32 104.75C234.523 106.484 233.375 108 231.875 109.297C230.391 110.594 228.586 111.617 226.461 112.367C224.352 113.117 221.977 113.492 219.336 113.492C216.695 113.492 214.312 113.117 212.188 112.367C210.078 111.617 208.273 110.594 206.773 109.297C205.289 108 204.141 106.484 203.328 104.75C202.531 103.016 202.133 101.156 202.133 99.1719ZM209.422 99.1719C209.422 100.281 209.641 101.336 210.078 102.336C210.531 103.32 211.18 104.195 212.023 104.961C212.883 105.711 213.922 106.312 215.141 106.766C216.375 107.203 217.773 107.422 219.336 107.422C220.898 107.422 222.289 107.203 223.508 106.766C224.742 106.312 225.781 105.711 226.625 104.961C227.484 104.195 228.133 103.32 228.57 102.336C229.023 101.336 229.25 100.281 229.25 99.1719C229.25 98.0625 229.023 97.0078 228.57 96.0078C228.133 95.0078 227.484 94.1328 226.625 93.3828C225.781 92.6172 224.742 92.0156 223.508 91.5781C222.289 91.125 220.898 90.8984 219.336 90.8984C217.773 90.8984 216.375 91.125 215.141 91.5781C213.922 92.0156 212.883 92.6172 212.023 93.3828C211.18 94.1328 210.531 95.0078 210.078 96.0078C209.641 97.0078 209.422 98.0625 209.422 99.1719ZM243.547 85.3438H250.484V89.3281C252.016 88.1875 253.633 87.2031 255.336 86.375C257.039 85.5469 258.734 84.9141 260.422 84.4766L262.461 90.8281C259.789 91.0938 257.438 91.6953 255.406 92.6328C253.391 93.5547 251.75 94.8594 250.484 96.5469V113H243.547V85.3438ZM267.828 85.3438H274.766V87.6875C276.5 86.625 278.188 85.8906 279.828 85.4844C281.484 85.0625 283.102 84.8516 284.68 84.8516C286.883 84.8516 288.906 85.2031 290.75 85.9062C292.594 86.6094 294.172 87.6719 295.484 89.0938C296.5 88.3125 297.5 87.6562 298.484 87.125C299.469 86.5781 300.453 86.1406 301.438 85.8125C302.422 85.4688 303.422 85.2266 304.438 85.0859C305.453 84.9297 306.5 84.8516 307.578 84.8516C309.844 84.8516 311.898 85.1641 313.742 85.7891C315.586 86.3984 317.156 87.3125 318.453 88.5312C319.766 89.75 320.773 91.2734 321.477 93.1016C322.195 94.9141 322.555 97.0156 322.555 99.4062V113H315.641V100.531C315.641 99.0156 315.422 97.6641 314.984 96.4766C314.562 95.2734 313.961 94.2656 313.18 93.4531C312.414 92.625 311.492 92 310.414 91.5781C309.352 91.1406 308.18 90.9219 306.898 90.9219C306.195 90.9219 305.477 90.9922 304.742 91.1328C304.008 91.2578 303.289 91.4609 302.586 91.7422C301.898 92.0234 301.25 92.3828 300.641 92.8203C300.031 93.2422 299.5 93.7422 299.047 94.3203V113H292.133V100.531C292.133 99.0156 291.914 97.6641 291.477 96.4766C291.055 95.2734 290.453 94.2656 289.672 93.4531C288.906 92.625 287.977 92 286.883 91.5781C285.805 91.1406 284.617 90.9219 283.32 90.9219C282.523 90.9219 281.719 91.0078 280.906 91.1797C280.109 91.3359 279.336 91.5625 278.586 91.8594C277.852 92.1562 277.156 92.5156 276.5 92.9375C275.859 93.3594 275.281 93.8359 274.766 94.3672V113H267.828V85.3438ZM329.984 104.281C329.984 102.953 330.273 101.742 330.852 100.648C331.43 99.5547 332.297 98.6172 333.453 97.8359C334.609 97.0391 336.047 96.4297 337.766 96.0078C339.5 95.5703 341.516 95.3516 343.812 95.3516C345.516 95.3516 347.305 95.4766 349.18 95.7266C351.07 95.9766 353.016 96.3594 355.016 96.875C354.938 96 354.672 95.1953 354.219 94.4609C353.766 93.7109 353.133 93.0703 352.32 92.5391C351.523 91.9922 350.555 91.5703 349.414 91.2734C348.289 90.9766 347.008 90.8281 345.57 90.8281C344.789 90.8281 343.93 90.875 342.992 90.9688C342.055 91.0625 341.086 91.2031 340.086 91.3906C339.086 91.5781 338.094 91.8125 337.109 92.0938C336.141 92.375 335.234 92.7109 334.391 93.1016L332.281 87.4062C333.328 87.0312 334.445 86.6875 335.633 86.375C336.836 86.0625 338.062 85.7969 339.312 85.5781C340.562 85.3438 341.812 85.1641 343.062 85.0391C344.312 84.9141 345.523 84.8516 346.695 84.8516C351.867 84.8516 355.711 86.1719 358.227 88.8125C360.742 91.4531 362 95.5 362 100.953V113H355.062V110.398C354.344 110.82 353.555 111.219 352.695 111.594C351.852 111.969 350.93 112.297 349.93 112.578C348.93 112.859 347.852 113.078 346.695 113.234C345.555 113.406 344.344 113.492 343.062 113.492C340.906 113.492 339.008 113.258 337.367 112.789C335.742 112.32 334.383 111.672 333.289 110.844C332.195 110.016 331.367 109.047 330.805 107.938C330.258 106.812 329.984 105.594 329.984 104.281ZM337.297 104.047C337.297 104.5 337.414 104.938 337.648 105.359C337.883 105.766 338.258 106.133 338.773 106.461C339.289 106.773 339.945 107.031 340.742 107.234C341.555 107.422 342.531 107.516 343.672 107.516C344.891 107.516 346.07 107.406 347.211 107.188C348.352 106.969 349.414 106.68 350.398 106.32C351.383 105.961 352.273 105.547 353.07 105.078C353.867 104.609 354.531 104.125 355.062 103.625V102.406C354 102.109 352.945 101.859 351.898 101.656C350.867 101.453 349.875 101.297 348.922 101.188C347.984 101.062 347.094 100.977 346.25 100.93C345.422 100.883 344.695 100.859 344.07 100.859C342.773 100.859 341.695 100.945 340.836 101.117C339.977 101.289 339.281 101.523 338.75 101.82C338.219 102.102 337.844 102.438 337.625 102.828C337.406 103.219 337.297 103.625 337.297 104.047ZM375.359 90.5469H368.68V85.3438H375.359V76.7422H382.297V85.3438H388.977V90.5469H382.297V113H375.359V90.5469ZM398.797 81.5703C398.109 81.5703 397.484 81.4766 396.922 81.2891C396.375 81.0859 395.906 80.8203 395.516 80.4922C395.125 80.1484 394.82 79.7578 394.602 79.3203C394.398 78.8672 394.297 78.3906 394.297 77.8906C394.297 77.375 394.398 76.8984 394.602 76.4609C394.82 76.0078 395.125 75.6172 395.516 75.2891C395.906 74.9609 396.375 74.7031 396.922 74.5156C397.484 74.3125 398.109 74.2109 398.797 74.2109C399.5 74.2109 400.125 74.3125 400.672 74.5156C401.234 74.7031 401.711 74.9609 402.102 75.2891C402.492 75.6172 402.789 76.0078 402.992 76.4609C403.211 76.8984 403.32 77.375 403.32 77.8906C403.32 78.3906 403.211 78.8672 402.992 79.3203C402.789 79.7578 402.492 80.1484 402.102 80.4922C401.711 80.8203 401.234 81.0859 400.672 81.2891C400.125 81.4766 399.5 81.5703 398.797 81.5703ZM395.328 85.3438H402.266V113H395.328V85.3438ZM409.508 99.1719C409.508 97.1875 409.906 95.3281 410.703 93.5938C411.516 91.8594 412.664 90.3438 414.148 89.0469C415.648 87.75 417.453 86.7266 419.562 85.9766C421.688 85.2266 424.07 84.8516 426.711 84.8516C429.352 84.8516 431.727 85.2266 433.836 85.9766C435.961 86.7266 437.766 87.75 439.25 89.0469C440.75 90.3438 441.898 91.8594 442.695 93.5938C443.508 95.3281 443.914 97.1875 443.914 99.1719C443.914 101.156 443.508 103.016 442.695 104.75C441.898 106.484 440.75 108 439.25 109.297C437.766 110.594 435.961 111.617 433.836 112.367C431.727 113.117 429.352 113.492 426.711 113.492C424.07 113.492 421.688 113.117 419.562 112.367C417.453 111.617 415.648 110.594 414.148 109.297C412.664 108 411.516 106.484 410.703 104.75C409.906 103.016 409.508 101.156 409.508 99.1719ZM416.797 99.1719C416.797 100.281 417.016 101.336 417.453 102.336C417.906 103.32 418.555 104.195 419.398 104.961C420.258 105.711 421.297 106.312 422.516 106.766C423.75 107.203 425.148 107.422 426.711 107.422C428.273 107.422 429.664 107.203 430.883 106.766C432.117 106.312 433.156 105.711 434 104.961C434.859 104.195 435.508 103.32 435.945 102.336C436.398 101.336 436.625 100.281 436.625 99.1719C436.625 98.0625 436.398 97.0078 435.945 96.0078C435.508 95.0078 434.859 94.1328 434 93.3828C433.156 92.6172 432.117 92.0156 430.883 91.5781C429.664 91.125 428.273 90.8984 426.711 90.8984C425.148 90.8984 423.75 91.125 422.516 91.5781C421.297 92.0156 420.258 92.6172 419.398 93.3828C418.555 94.1328 417.906 95.0078 417.453 96.0078C417.016 97.0078 416.797 98.0625 416.797 99.1719ZM450.922 85.3438H457.859V87.6875C459.703 86.6406 461.461 85.9062 463.133 85.4844C464.82 85.0625 466.469 84.8516 468.078 84.8516C470.188 84.8516 472.141 85.1641 473.938 85.7891C475.734 86.3984 477.289 87.3125 478.602 88.5312C479.914 89.75 480.938 91.2734 481.672 93.1016C482.422 94.9141 482.797 97.0156 482.797 99.4062V113H475.883V100.531C475.883 99.0156 475.664 97.6641 475.227 96.4766C474.805 95.2734 474.188 94.2656 473.375 93.4531C472.578 92.625 471.602 92 470.445 91.5781C469.305 91.1406 468.023 90.9219 466.602 90.9219C465.852 90.9219 465.078 91 464.281 91.1562C463.5 91.3125 462.727 91.5391 461.961 91.8359C461.211 92.1172 460.484 92.4766 459.781 92.9141C459.078 93.3359 458.438 93.8203 457.859 94.3672V113H450.922V85.3438Z" fill="black"/>
</g>
<ellipse cx="345" cy="135" rx="160" ry="10" fill="#D9D9D9"/>
<defs>
<filter id="filter0_d_637_81" x="0" y="0" width="222.739" height="239.088" filterUnits="userSpaceOnUse" color-interpolation-filters="sRGB">
<feFlood flood-opacity="0" result="BackgroundImageFix"/>
<feColorMatrix in="SourceAlpha" type="matrix" values="0 0 0 0 0 0 0 0 0 0 0 0 0 0 0 0 0 0 127 0" result="hardAlpha"/>
<feOffset dy="4"/>
<feGaussianBlur stdDeviation="2"/>
<feComposite in2="hardAlpha" operator="out"/>
<feColorMatrix type="matrix" values="0 0 0 0 0 0 0 0 0 0 0 0 0 0 0 0 0 0 0.25 0"/>
<feBlend mode="normal" in2="BackgroundImageFix" result="effect1_dropShadow_637_81"/>
<feBlend mode="normal" in="SourceGraphic" in2="effect1_dropShadow_637_81" result="shape"/>
</filter>
<filter id="filter1_d_637_81" x="80" y="45" width="33" height="98" filterUnits="userSpaceOnUse" color-interpolation-filters="sRGB">
<feFlood flood-opacity="0" result="BackgroundImageFix"/>
<feColorMatrix in="SourceAlpha" type="matrix" values="0 0 0 0 0 0 0 0 0 0 0 0 0 0 0 0 0 0 127 0" result="hardAlpha"/>
<feOffset dy="4"/>
<feGaussianBlur stdDeviation="2"/>
<feComposite in2="hardAlpha" operator="out"/>
<feColorMatrix type="matrix" values="0 0 0 0 0 0 0 0 0 0 0 0 0 0 0 0 0 0 0.25 0"/>
<feBlend mode="normal" in2="BackgroundImageFix" result="effect1_dropShadow_637_81"/>
<feBlend mode="normal" in="SourceGraphic" in2="effect1_dropShadow_637_81" result="shape"/>
</filter>
<filter id="filter2_d_637_81" x="80" y="45" width="33" height="32.5454" filterUnits="userSpaceOnUse" color-interpolation-filters="sRGB">
<feFlood flood-opacity="0" result="BackgroundImageFix"/>
<feColorMatrix in="SourceAlpha" type="matrix" values="0 0 0 0 0 0 0 0 0 0 0 0 0 0 0 0 0 0 127 0" result="hardAlpha"/>
<feOffset dy="4"/>
<feGaussianBlur stdDeviation="2"/>
<feComposite in2="hardAlpha" operator="out"/>
<feColorMatrix type="matrix" values="0 0 0 0 0 0 0 0 0 0 0 0 0 0 0 0 0 0 0.25 0"/>
<feBlend mode="normal" in2="BackgroundImageFix" result="effect1_dropShadow_637_81"/>
<feBlend mode="normal" in="SourceGraphic" in2="effect1_dropShadow_637_81" result="shape"/>
</filter>
<filter id="filter3_d_637_81" x="83.125" y="77.675" width="26.75" height="65.325" filterUnits="userSpaceOnUse" color-interpolation-filters="sRGB">
<feFlood flood-opacity="0" result="BackgroundImageFix"/>
<feColorMatrix in="SourceAlpha" type="matrix" values="0 0 0 0 0 0 0 0 0 0 0 0 0 0 0 0 0 0 127 0" result="hardAlpha"/>
<feOffset dy="4"/>
<feGaussianBlur stdDeviation="2"/>
<feComposite in2="hardAlpha" operator="out"/>
<feColorMatrix type="matrix" values="0 0 0 0 0 0 0 0 0 0 0 0 0 0 0 0 0 0 0.25 0"/>
<feBlend mode="normal" in2="BackgroundImageFix" result="effect1_dropShadow_637_81"/>
<feBlend mode="normal" in="SourceGraphic" in2="effect1_dropShadow_637_81" result="shape"/>
</filter>
<filter id="filter4_d_637_81" x="135.344" y="73.5312" width="351.453" height="47.9609" filterUnits="userSpaceOnUse" color-interpolation-filters="sRGB">
<feFlood flood-opacity="0" result="BackgroundImageFix"/>
<feColorMatrix in="SourceAlpha" type="matrix" values="0 0 0 0 0 0 0 0 0 0 0 0 0 0 0 0 0 0 127 0" result="hardAlpha"/>
<feOffset dy="4"/>
<feGaussianBlur stdDeviation="2"/>
<feComposite in2="hardAlpha" operator="out"/>
<feColorMatrix type="matrix" values="0 0 0 0 0 0 0 0 0 0 0 0 0 0 0 0 0 0 0.25 0"/>
<feBlend mode="normal" in2="BackgroundImageFix" result="effect1_dropShadow_637_81"/>
<feBlend mode="normal" in="SourceGraphic" in2="effect1_dropShadow_637_81" result="shape"/>
</filter>
</defs>
</svg>
