<svg width="596" height="228" viewBox="0 0 596 228" fill="none" xmlns="http://www.w3.org/2000/svg">
<g filter="url(#filter0_d_633_139)">
<ellipse cx="301.495" cy="91.1243" rx="65.8881" ry="65.0888" fill="#FFF505"/>
<rect x="271.187" y="89.8225" width="59.2993" height="130.178" rx="29.6496" fill="#7C7C7C"/>
<rect x="271.187" y="35.1479" width="59.2993" height="130.178" fill="#FFF505"/>
<g filter="url(#filter1_i_633_139)">
<g clip-path="url(#clip0_633_139)">
<path d="M328.37 94.6033C328.523 93.4533 328.6 92.265 328.6 91C328.6 89.7733 328.523 88.5466 328.331 87.3966L336.113 81.34C336.803 80.8033 336.995 79.7683 336.573 79.0016L329.213 66.275C328.753 65.4316 327.795 65.1633 326.951 65.4316L317.79 69.1116C315.873 67.655 313.841 66.4283 311.58 65.5083L310.2 55.7716C310.046 54.8516 309.28 54.2 308.36 54.2H293.64C292.72 54.2 291.991 54.8516 291.838 55.7716L290.458 65.5083C288.196 66.4283 286.126 67.6933 284.248 69.1116L275.086 65.4316C274.243 65.125 273.285 65.4316 272.825 66.275L265.503 79.0016C265.043 79.8066 265.196 80.8033 265.963 81.34L273.745 87.3966C273.553 88.5466 273.4 89.8116 273.4 91C273.4 92.1883 273.476 93.4533 273.668 94.6033L265.886 100.66C265.196 101.197 265.005 102.232 265.426 102.998L272.786 115.725C273.246 116.568 274.205 116.837 275.048 116.568L284.21 112.888C286.126 114.345 288.158 115.572 290.42 116.492L291.8 126.228C291.991 127.148 292.72 127.8 293.64 127.8H308.36C309.28 127.8 310.046 127.148 310.161 126.228L311.541 116.492C313.803 115.572 315.873 114.345 317.751 112.888L326.913 116.568C327.756 116.875 328.715 116.568 329.175 115.725L336.535 102.998C336.995 102.155 336.803 101.197 336.075 100.66L328.37 94.6033ZM301 104.8C293.41 104.8 287.2 98.59 287.2 91C287.2 83.41 293.41 77.2 301 77.2C308.59 77.2 314.8 83.41 314.8 91C314.8 98.59 308.59 104.8 301 104.8Z" fill="#7C7C7C"/>
</g>
<g filter="url(#filter2_d_633_139)">
<ellipse cx="301.412" cy="91.043" rx="14.413" ry="14.2382" fill="white"/>
</g>
</g>
<rect x="271.187" y="175.74" width="59.2993" height="9.11243" fill="#D9D9D9"/>
<rect x="297.542" width="6.58881" height="13.0178" fill="#FFD233"/>
<rect width="6.54202" height="13.1118" transform="matrix(0.647385 -0.762163 0.76989 0.638177 228 29.0051)" fill="#FFD233"/>
<rect width="6.54202" height="13.1118" transform="matrix(0.647385 0.762163 -0.76989 0.638177 369.872 24.0193)" fill="#FFD233"/>
</g>
<g filter="url(#filter3_d_633_139)">
<path d="M79.0938 155.766H52.0469V142.734H121V155.766H93.9531V216H79.0938V155.766ZM132.531 188.156C132.531 184.406 133.297 180.828 134.828 177.422C136.359 173.984 138.562 170.953 141.438 168.328C144.312 165.703 147.828 163.609 151.984 162.047C156.172 160.484 160.922 159.703 166.234 159.703C171.516 159.703 176.266 160.5 180.484 162.094C184.734 163.656 188.328 165.812 191.266 168.562C194.234 171.312 196.5 174.547 198.062 178.266C199.656 181.984 200.453 185.969 200.453 190.219C200.453 190.75 200.438 191.328 200.406 191.953C200.406 192.547 200.375 193.094 200.312 193.594H148C148.594 195.25 149.547 196.766 150.859 198.141C152.203 199.516 153.875 200.703 155.875 201.703C157.875 202.703 160.188 203.484 162.812 204.047C165.438 204.578 168.344 204.844 171.531 204.844C174.719 204.844 177.891 204.516 181.047 203.859C184.203 203.172 187.219 202.312 190.094 201.281L194.781 211.875C192.969 212.719 191.125 213.469 189.25 214.125C187.406 214.75 185.469 215.281 183.438 215.719C181.438 216.125 179.328 216.438 177.109 216.656C174.922 216.875 172.609 216.984 170.172 216.984C163.953 216.984 158.5 216.234 153.812 214.734C149.125 213.234 145.203 211.188 142.047 208.594C138.891 206 136.516 202.953 134.922 199.453C133.328 195.953 132.531 192.188 132.531 188.156ZM185.734 182.766C185.234 181.234 184.453 179.812 183.391 178.5C182.359 177.156 181.062 176 179.5 175.031C177.938 174.031 176.125 173.25 174.062 172.688C172 172.125 169.734 171.844 167.266 171.844C164.641 171.844 162.25 172.141 160.094 172.734C157.938 173.328 156.047 174.125 154.422 175.125C152.797 176.125 151.438 177.281 150.344 178.594C149.281 179.906 148.5 181.297 148 182.766H185.734ZM403.328 188.484C403.328 184.422 404.062 180.641 405.531 177.141C407.031 173.609 409.203 170.562 412.047 168C414.922 165.406 418.422 163.375 422.547 161.906C426.703 160.438 431.438 159.703 436.75 159.703C439.062 159.703 441.391 159.844 443.734 160.125C446.078 160.406 448.328 160.812 450.484 161.344C452.672 161.844 454.719 162.453 456.625 163.172C458.531 163.859 460.188 164.625 461.594 165.469L455.172 175.922C452.141 174.516 449.266 173.484 446.547 172.828C443.859 172.172 441.125 171.844 438.344 171.844C435.156 171.844 432.297 172.266 429.766 173.109C427.234 173.922 425.078 175.078 423.297 176.578C421.547 178.047 420.203 179.797 419.266 181.828C418.359 183.828 417.906 186.016 417.906 188.391C417.906 190.766 418.391 192.969 419.359 195C420.359 197 421.75 198.734 423.531 200.203C425.344 201.641 427.516 202.781 430.047 203.625C432.609 204.438 435.453 204.844 438.578 204.844C442.016 204.844 445.25 204.359 448.281 203.391C451.344 202.422 454.188 201.125 456.812 199.5L463.234 209.953C461.578 210.953 459.781 211.891 457.844 212.766C455.906 213.609 453.828 214.344 451.609 214.969C449.422 215.594 447.109 216.078 444.672 216.422C442.266 216.797 439.766 216.984 437.172 216.984C431.891 216.984 427.156 216.266 422.969 214.828C418.781 213.391 415.234 211.406 412.328 208.875C409.422 206.312 407.188 203.297 405.625 199.828C404.094 196.359 403.328 192.578 403.328 188.484ZM478.188 138.281H492.062V164.906C494.969 163.312 498.203 162.047 501.766 161.109C505.359 160.172 509.125 159.703 513.062 159.703C517.625 159.703 521.719 160.375 525.344 161.719C529 163.062 532.094 165 534.625 167.531C537.156 170.031 539.094 173.078 540.438 176.672C541.812 180.266 542.5 184.312 542.5 188.812V216H528.672V189.375C528.672 186.75 528.25 184.359 527.406 182.203C526.562 180.016 525.328 178.141 523.703 176.578C522.078 175.016 520.094 173.812 517.75 172.969C515.438 172.094 512.812 171.656 509.875 171.656C506.344 171.656 503.062 172.219 500.031 173.344C497 174.469 494.344 175.891 492.062 177.609V216H478.188V138.281Z" fill="#1D31FF"/>
</g>
<defs>
<filter id="filter0_d_633_139" x="224" y="0" width="154.107" height="228" filterUnits="userSpaceOnUse" color-interpolation-filters="sRGB">
<feFlood flood-opacity="0" result="BackgroundImageFix"/>
<feColorMatrix in="SourceAlpha" type="matrix" values="0 0 0 0 0 0 0 0 0 0 0 0 0 0 0 0 0 0 127 0" result="hardAlpha"/>
<feOffset dy="4"/>
<feGaussianBlur stdDeviation="2"/>
<feComposite in2="hardAlpha" operator="out"/>
<feColorMatrix type="matrix" values="0 0 0 0 0 0 0 0 0 0 0 0 0 0 0 0 0 0 0.25 0"/>
<feBlend mode="normal" in2="BackgroundImageFix" result="effect1_dropShadow_633_139"/>
<feBlend mode="normal" in="SourceGraphic" in2="effect1_dropShadow_633_139" result="shape"/>
</filter>
<filter id="filter1_i_633_139" x="255" y="45" width="92" height="96" filterUnits="userSpaceOnUse" color-interpolation-filters="sRGB">
<feFlood flood-opacity="0" result="BackgroundImageFix"/>
<feBlend mode="normal" in="SourceGraphic" in2="BackgroundImageFix" result="shape"/>
<feColorMatrix in="SourceAlpha" type="matrix" values="0 0 0 0 0 0 0 0 0 0 0 0 0 0 0 0 0 0 127 0" result="hardAlpha"/>
<feOffset dy="4"/>
<feGaussianBlur stdDeviation="2"/>
<feComposite in2="hardAlpha" operator="arithmetic" k2="-1" k3="1"/>
<feColorMatrix type="matrix" values="0 0 0 0 0 0 0 0 0 0 0 0 0 0 0 0 0 0 0.25 0"/>
<feBlend mode="normal" in2="shape" result="effect1_innerShadow_633_139"/>
</filter>
<filter id="filter2_d_633_139" x="282.999" y="76.8048" width="36.8262" height="36.4763" filterUnits="userSpaceOnUse" color-interpolation-filters="sRGB">
<feFlood flood-opacity="0" result="BackgroundImageFix"/>
<feColorMatrix in="SourceAlpha" type="matrix" values="0 0 0 0 0 0 0 0 0 0 0 0 0 0 0 0 0 0 127 0" result="hardAlpha"/>
<feOffset dy="4"/>
<feGaussianBlur stdDeviation="2"/>
<feComposite in2="hardAlpha" operator="out"/>
<feColorMatrix type="matrix" values="0 0 0 0 0 0 0 0 0 0 0 0 0 0 0 0 0 0 0.25 0"/>
<feBlend mode="normal" in2="BackgroundImageFix" result="effect1_dropShadow_633_139"/>
<feBlend mode="normal" in="SourceGraphic" in2="effect1_dropShadow_633_139" result="shape"/>
</filter>
<filter id="filter3_d_633_139" x="48.0469" y="138.281" width="498.453" height="86.7031" filterUnits="userSpaceOnUse" color-interpolation-filters="sRGB">
<feFlood flood-opacity="0" result="BackgroundImageFix"/>
<feColorMatrix in="SourceAlpha" type="matrix" values="0 0 0 0 0 0 0 0 0 0 0 0 0 0 0 0 0 0 127 0" result="hardAlpha"/>
<feOffset dy="4"/>
<feGaussianBlur stdDeviation="2"/>
<feComposite in2="hardAlpha" operator="out"/>
<feColorMatrix type="matrix" values="0 0 0 0 0 0 0 0 0 0 0 0 0 0 0 0 0 0 0.25 0"/>
<feBlend mode="normal" in2="BackgroundImageFix" result="effect1_dropShadow_633_139"/>
<feBlend mode="normal" in="SourceGraphic" in2="effect1_dropShadow_633_139" result="shape"/>
</filter>
<clipPath id="clip0_633_139">
<rect width="92" height="92" fill="white" transform="translate(255 45)"/>
</clipPath>
</defs>
</svg>
